<svg xmlns="http://www.w3.org/2000/svg" viewBox="0 0 2048 270" role="img" aria-labelledby="title">
  <title id="title">Field Intelligence</title>
  <defs>
    <linearGradient id="brandRed" x1="0%" y1="0%" x2="0%" y2="100%">
      <stop offset="0%" stop-color="#cd151b" />
      <stop offset="100%" stop-color="#a61116" />
    </linearGradient>
    <filter id="soft" x="-20%" y="-20%" width="140%" height="140%">
      <feDropShadow dx="0" dy="4" stdDeviation="3" flood-color="#5d0609" flood-opacity="0.35" />
    </filter>
  </defs>

  <g fill="none" stroke="url(#brandRed)" stroke-width="7.5" stroke-linecap="round" stroke-linejoin="round" filter="url(#soft)">
    <g transform="translate(18 26)">
      <path d="M10 36l30 30-20 20L-10 56z" />
      <path d="M48 74l30 30-20 20-30-30z" />
      <path d="M18 106l30 30-20 20-30-30z" />
      <path d="M72 124l30 30-20 20-30-30z" />
      <path d="M32 12l22 22M5 39l22 22M60 67l22 22M33 95l22 22M87 121l22 22" />
      <path d="M126 50c6-17 18-28 34-32-11 11-14 26-9 43 10 4 20 9 30 17-20 5-38 2-54-9-8-7-9-12-1-19z" fill="url(#brandRed)" />
    </g>

    <g transform="translate(1930 40)">
      <rect x="16" y="16" width="56" height="56" rx="5" />
      <path d="M44 0v16M44 72v16M0 44h16M72 44h16M10 10l12 12M66 66l12 12M10 78l12-12M66 22l12-12" />
      <circle cx="44" cy="44" r="6" />
      <circle cx="44" cy="-2" r="4" />
      <circle cx="44" cy="90" r="4" />
      <circle cx="-2" cy="44" r="4" />
      <circle cx="90" cy="44" r="4" />
    </g>
  </g>

  <text
    x="264"
    y="182"
    fill="url(#brandRed)"
    font-size="160"
    font-weight="900"
    font-family="'Arial Black', 'Segoe UI Black', 'Helvetica Neue', Arial, sans-serif"
    letter-spacing="2"
    filter="url(#soft)"
  >
    FIELD INTELLIGENCE
  </text>
</svg>
